<svg xmlns="http://www.w3.org/2000/svg" viewBox="0 0 800 400" role="img" aria-label="kinderboerderij: schuur en kip"><rect width="800" height="400" fill="#EFF4E4"/><path d="M280 190 L400 110 L520 190 Z" fill="#D94F30"/><rect x="300" y="190" width="200" height="130" fill="#EE8035"/><rect x="375" y="240" width="50" height="80" rx="6" fill="#8A4B26"/><rect x="315" y="210" width="42" height="42" rx="8" fill="#FDF6EC"/><rect x="443" y="210" width="42" height="42" rx="8" fill="#FDF6EC"/><ellipse cx="620" cy="300" rx="46" ry="38" fill="#FDF6EC"/><circle cx="655" cy="268" r="20" fill="#FDF6EC"/><path d="M668 262 l16 6 -16 8 Z" fill="#F4B233"/><path d="M650 246 q6 -14 14 0 q8 -12 12 2" fill="#D94F30"/><path d="M0 360 q25 -18 50 0 t50 0 t50 0 t50 0 t50 0 t50 0 t50 0 t50 0 t50 0 t50 0 t50 0 t50 0 t50 0 t50 0 t50 0 t50 0" fill="none" stroke="#4CA362" stroke-width="10"/></svg>
